{"title":"47 Ronin (2013) Blurred Subtitles-BDM","uid":9769515,"size":1406610105,"categoryP":"video","categoryS":"movies","magnet":"?xt=urn:btih:c61e4b895bf9b3d8c9933f41f03f364a5b341c8a&amp;dn=47+Ronin+%282013%29+Blurred+Subtitles-BDM&amp;tr=udp%3A%2F%2Ftracker.openbittorrent.com%3A80&amp;tr=udp%3A%2F%2Fopen.demonii.com%3A1337&amp;tr=udp%3A%2F%2Ftracker.coppersurfer.tk%3A6969&amp;tr=udp%3A%2F%2Fexodus.desync.com%3A6969","seeders":2,"leechers":0,"uploader":"BigDogMoya","files":-1,"time":1394936236,"description":"***This is the same WebRip copy that is going around but I blurred the subtitles.***\n\nIMDB Link:\n    &lt;a href=&quot;\nhttp://www.imdb.com/title/tt1335975/&quot; rel=&quot;nofollow&quot; target=&quot;_NEW&quot;&gt;\nhttp://www.imdb.com/title/tt1335975/&lt;/a&gt;\n\n\nScreen Shots:\n    &lt;a href=&quot;\nhttp://i.imgur.com/Tunw3BG.png&quot; rel=&quot;nofollow&quot; target=&quot;_NEW&quot;&gt;\nhttp://i.imgur.com/Tunw3BG.png&lt;/a&gt;\n  &lt;a href=&quot;\nhttp://i.imgur.com/yZeNpiz.png&quot; rel=&quot;nofollow&quot; target=&quot;_NEW&quot;&gt;\nhttp://i.imgur.com/yZeNpiz.png&lt;/a&gt;\n  &lt;a href=&quot;\nhttp://i.imgur.com/NzH2q9H.png&quot; rel=&quot;nofollow&quot; target=&quot;_NEW&quot;&gt;\nhttp://i.imgur.com/NzH2q9H.png&lt;/a&gt;\n  &lt;a href=&quot;\nhttp://i.imgur.com/eb8BoVw.png&quot; rel=&quot;nofollow&quot; target=&quot;_NEW&quot;&gt;\nhttp://i.imgur.com/eb8BoVw.png&lt;/a&gt;\n  &lt;a href=&quot;\nhttp://i.imgur.com/ioyFoSB.png&quot; rel=&quot;nofollow&quot; target=&quot;_NEW&quot;&gt;\nhttp://i.imgur.com/ioyFoSB.png&lt;/a&gt;\n\n\nAlso included a sample, enjoy.\t\n\n\nVideo\nID                                       : 1\nFormat                                   : AVC\nFormat/Info                              : Advanced Video Codec\nFormat profile                           : &lt;a class=&quot;__cf_email__&quot; href=&quot;/cdn-cgi/l/email-protection&quot; data-cfemail=&quot;d890b1bfb09894ebf6e8&quot;&gt;[email&amp;#160;protected]&lt;/a&gt;&lt;script cf-hash='f9e31' type=&quot;text/javascript&quot;&gt;\n/* &lt;![CDATA[ */!function(){try{var t=&quot;currentScript&quot;in document?document.currentScript:function(){for(var t=document.getElementsByTagName(&quot;script&quot;),e=t.length;e--;)if(t[e].getAttribute(&quot;cf-hash&quot;))return t[e]}();if(t&amp;&amp;t.previousSibling){var e,r,n,i,c=t.previousSibling,a=c.getAttribute(&quot;data-cfemail&quot;);if(a){for(e=&quot;&quot;,r=parseInt(a.substr(0,2),16),n=2;a.length-n;n+=2)i=parseInt(a.substr(n,2),16)^r,e+=String.fromCharCode(i);e=document.createTextNode(e),c.parentNode.replaceChild(e,c)}}}catch(u){}}();/* ]]&gt; */&lt;/script&gt;\nFormat settings, CABAC                   : Yes\nFormat settings, ReFrames                : 4 frames\nCodec ID                                 : avc1\nCodec ID/Info                            : Advanced Video Coding\nDuration                                 : 1h 54mn\nBit rate                                 : 1 176 Kbps\nMaximum bit rate                         : 6 317 Kbps\nWidth                                    : 720 pixels\nHeight                                   : 400 pixels\nDisplay aspect ratio                     : 16:9\nFrame rate mode                          : Constant\nFrame rate                               : 23.976 fps\nColor space                              : YUV\nChroma subsampling                       : 4:2:0\nBit depth                                : 8 bits\nScan type                                : Progressive\nBits/(Pixel*Frame)                       : 0.170\nStream size                              : 966 MiB (72%)\nWriting library                          : x264 core 138 r2358M+r755[x86] release 1\n\n\nAudio\nID                                       : 2\nFormat                                   : AC-3\nFormat/Info                              : Audio Coding 3\nMode extension                           : CM (complete main)\nFormat settings, Endianness              : Big\nCodec ID                                 : ac-3\nDuration                                 : 1h 54mn\nBit rate mode                            : Constant\nBit rate                                 : 448 Kbps\nChannel(s)                               : 2 channels\nChannel positions                        : Front: L R\nSampling rate                            : 44.1 KHz\nBit depth                                : 16 bits\nCompression mode                         : Lossy\nStream size                              : 368 MiB (28%)","torrent":{"xt":"urn:btih:c61e4b895bf9b3d8c9933f41f03f364a5b341c8a","amp;dn":"47+Ronin+%282013%29+Blurred+Subtitles-BDM","amp;tr":["udp%3A%2F%2Ftracker.openbittorrent.com%3A80","udp%3A%2F%2Fopen.demonii.com%3A1337","udp%3A%2F%2Ftracker.coppersurfer.tk%3A6969","udp%3A%2F%2Fexodus.desync.com%3A6969"],"infoHash":"c61e4b895bf9b3d8c9933f41f03f364a5b341c8a","infoHashBuffer":{"type":"Buffer","data":[198,30,75,137,91,249,179,216,201,147,63,65,240,63,54,74,91,52,28,138]},"announce":[],"urlList":[]}}